<svg xmlns="http://www.w3.org/2000/svg" width="640" height="360" viewBox="0 0 640 360" fill="none">
  <rect width="640" height="360" fill="#0b1220"/>
  <rect x="24" y="18" width="592" height="324" rx="14" fill="#f8fafc"/>
  <rect x="24" y="18" width="592" height="36" rx="14" fill="#e2e8f0"/>
  <circle cx="48" cy="36" r="5" fill="#f87171"/>
  <circle cx="66" cy="36" r="5" fill="#fbbf24"/>
  <circle cx="84" cy="36" r="5" fill="#34d399"/>
  <rect x="110" y="28" width="240" height="16" rx="8" fill="#cbd5e1"/>
  <rect x="48" y="72" width="88" height="12" rx="6" fill="#0ea5e9"/>
  <rect x="48" y="96" width="400" height="22" rx="8" fill="#0f172a"/>
  <rect x="48" y="128" width="280" height="22" rx="8" fill="#334155"/>
  <rect x="48" y="168" width="520" height="10" rx="5" fill="#cbd5e1"/>
  <rect x="48" y="188" width="470" height="10" rx="5" fill="#e2e8f0"/>
  <rect x="48" y="208" width="500" height="10" rx="5" fill="#e2e8f0"/>
  <rect x="48" y="236" width="168" height="28" rx="8" fill="#ecfeff"/>
  <text x="58" y="255" font-family="Arial" font-size="12" fill="#0e7490">HarborPay - DR 88</text>
  <rect x="48" y="280" width="90" height="32" rx="16" fill="#0284c7"/>
</svg>
